<svg width="414" height="94" viewBox="0 0 414 94" fill="none" xmlns="http://www.w3.org/2000/svg">
<path d="M98.75 62V15.4688H117.281L131.75 50.0312V15.4688H143.656V62H125.094L110.625 27.125V62H98.75ZM152.125 47.5938H164.094V48.0625C164.094 49.7292 164.542 50.9062 165.438 51.5938C166.333 52.2604 167.917 52.5938 170.188 52.5938H173.312C175.167 52.5938 176.479 52.3438 177.25 51.8438C178.042 51.3229 178.438 50.4167 178.438 49.125V47.0938C178.438 45.9896 178.146 45.2083 177.562 44.75C176.979 44.2917 175.604 43.9167 173.438 43.625L163.312 42.5312C159.562 42.1146 156.812 40.9375 155.062 39C153.312 37.0417 152.438 34.1458 152.438 30.3125V27.4375C152.438 25.3125 152.771 23.4062 153.438 21.7188C154.125 20.0312 155.135 18.6146 156.469 17.4688C157.594 16.5312 158.958 15.875 160.562 15.5C161.375 15.3125 162.365 15.1667 163.531 15.0625C164.719 14.9583 166.125 14.9062 167.75 14.9062H175.219C179.823 14.9062 183.365 15.8542 185.844 17.75C188.323 19.625 189.562 22.3229 189.562 25.8438V29.0312H177.594V28.5312C177.594 27.1354 177.26 26.1667 176.594 25.625C175.948 25.0833 174.771 24.8125 173.062 24.8125H170.188C168.208 24.8125 166.844 25.0417 166.094 25.5C165.365 25.9583 165 26.7708 165 27.9375V29.875C165 31.5625 166.677 32.6042 170.031 33L179.25 34.0312C183.229 34.4688 186.198 35.625 188.156 37.5C190.115 39.375 191.094 42 191.094 45.375V49.8438C191.094 53.6771 189.896 56.7604 187.5 59.0938C185.125 61.4062 181.906 62.5625 177.844 62.5625H167.688C162.271 62.5625 158.323 61.625 155.844 59.75C153.365 57.8542 152.125 54.875 152.125 50.8125V47.5938ZM198.844 15.4688H211.25V42.5938C211.25 46.3229 211.719 48.7604 212.656 49.9062C213.594 51.0521 215.542 51.625 218.5 51.625H220.781C223.677 51.625 225.594 51.0729 226.531 49.9688C227.49 48.8646 227.969 46.4062 227.969 42.5938V15.4688H240.375V43.5625C240.375 47.75 240.115 50.8125 239.594 52.75C239.344 53.75 239.01 54.6562 238.594 55.4688C238.177 56.2812 237.646 57.0729 237 57.8438C235.583 59.5104 233.771 60.7188 231.562 61.4688C229.354 62.1979 226.406 62.5625 222.719 62.5625H216.562C214.646 62.5625 212.979 62.4792 211.562 62.3125C210.167 62.1458 208.885 61.8646 207.719 61.4688C205.573 60.7604 203.771 59.5521 202.312 57.8438C201.083 56.4479 200.198 54.7188 199.656 52.6562C199.115 50.5938 198.844 47.5625 198.844 43.5625V15.4688ZM250.312 62V15.4688H262.906V51.1875H283.719V62H250.312Z" fill="#044CB6"/>
<path d="M42.375 44.0938V45.4375C42.375 51.5208 41.0417 55.8958 38.375 58.5625C35.7083 61.2292 31.3438 62.5625 25.2812 62.5625H21.0625C14.5 62.5625 9.88542 61.1562 7.21875 58.3438C4.57292 55.5312 3.25 50.6042 3.25 43.5625V33.9062C3.25 26.8438 4.5625 21.9167 7.1875 19.125C9.83333 16.3125 14.4583 14.9062 21.0625 14.9062H24.5C31.0417 14.9062 35.6042 16.1354 38.1875 18.5938C39.4792 19.8229 40.4479 21.5104 41.0938 23.6562C41.7396 25.8021 42.0625 28.4479 42.0625 31.5938V32.5H29.625V31.6562C29.625 29.5104 29.1354 28.0104 28.1562 27.1562C27.1771 26.2812 25.4688 25.8438 23.0312 25.8438C20.3438 25.8438 18.5521 26.375 17.6562 27.4375C16.7604 28.4792 16.3125 30.9792 16.3125 34.9375V42.5938C16.3125 46.5521 16.7604 49.0521 17.6562 50.0938C18.5521 51.1146 20.3438 51.625 23.0312 51.625C25.5104 51.625 27.2396 51.1562 28.2188 50.2188C29.1979 49.2604 29.6875 47.5729 29.6875 45.1562V44.0938H42.375Z" fill="#044CB6"/>
<path d="M290.725 62V25.8438H278.756V15.4688H315.256V25.8438H303.35V62H290.725ZM323.812 62V15.4688H358.75V25.8438H336.281V33.9062H358.094V42.875H336.281V51.625H359.25V62H323.812ZM407.338 44.0938V45.4375C407.338 51.5208 406.004 55.8958 403.338 58.5625C400.671 61.2292 396.306 62.5625 390.244 62.5625H386.025C379.463 62.5625 374.848 61.1562 372.181 58.3438C369.535 55.5312 368.213 50.6042 368.213 43.5625V33.9062C368.213 26.8438 369.525 21.9167 372.15 19.125C374.796 16.3125 379.421 14.9062 386.025 14.9062H389.463C396.004 14.9062 400.567 16.1354 403.15 18.5938C404.442 19.8229 405.41 21.5104 406.056 23.6562C406.702 25.8021 407.025 28.4479 407.025 31.5938V32.5H394.588V31.6562C394.588 29.5104 394.098 28.0104 393.119 27.1562C392.14 26.2812 390.431 25.8438 387.994 25.8438C385.306 25.8438 383.515 26.375 382.619 27.4375C381.723 28.4792 381.275 30.9792 381.275 34.9375V42.5938C381.275 46.5521 381.723 49.0521 382.619 50.0938C383.515 51.1146 385.306 51.625 387.994 51.625C390.473 51.625 392.202 51.1562 393.181 50.2188C394.16 49.2604 394.65 47.5729 394.65 45.1562V44.0938H407.338Z" fill="#044CB6"/>
<path d="M20.5391 79.166V79.7539C20.5391 82.4154 19.9557 84.3294 18.7891 85.4961C17.6224 86.6628 15.7129 87.2461 13.0605 87.2461H11.2148C8.34375 87.2461 6.32487 86.6309 5.1582 85.4004C4.00065 84.1699 3.42188 82.0143 3.42188 78.9336V74.709C3.42188 71.6191 3.99609 69.4635 5.14453 68.2422C6.30208 67.0117 8.32552 66.3965 11.2148 66.3965H12.7188C15.5807 66.3965 17.5768 66.9342 18.707 68.0098C19.2721 68.5475 19.696 69.2858 19.9785 70.2246C20.2611 71.1634 20.4023 72.321 20.4023 73.6973V74.0938H14.9609V73.7246C14.9609 72.7858 14.7467 72.1296 14.3184 71.7559C13.89 71.373 13.1426 71.1816 12.0762 71.1816C10.9004 71.1816 10.1165 71.4141 9.72461 71.8789C9.33268 72.3346 9.13672 73.4284 9.13672 75.1602V78.5098C9.13672 80.2415 9.33268 81.3353 9.72461 81.791C10.1165 82.2376 10.9004 82.4609 12.0762 82.4609C13.1608 82.4609 13.9173 82.2559 14.3457 81.8457C14.7741 81.4264 14.9883 80.6882 14.9883 79.6309V79.166H20.5391ZM27.7695 75.1602V78.5098C27.7695 80.2507 27.9655 81.3444 28.3574 81.791C28.7493 82.2376 29.5697 82.4609 30.8184 82.4609H31.8301C33.0788 82.4609 33.9036 82.2331 34.3047 81.7773C34.7057 81.3216 34.9062 80.2324 34.9062 78.5098V75.1602C34.9062 73.4284 34.7057 72.3346 34.3047 71.8789C33.9036 71.4141 33.0788 71.1816 31.8301 71.1816H30.8184C29.5788 71.1816 28.7585 71.4141 28.3574 71.8789C27.9655 72.3346 27.7695 73.4284 27.7695 75.1602ZM22.1914 74.709C22.1914 71.6191 22.7656 69.4635 23.9141 68.2422C25.0716 67.0117 27.0951 66.3965 29.9844 66.3965H32.6641C35.5443 66.3965 37.5677 67.0163 38.7344 68.2559C39.901 69.4863 40.4844 71.6374 40.4844 74.709V78.9336C40.4844 82.0143 39.9056 84.1699 38.748 85.4004C37.5905 86.6309 35.5625 87.2461 32.6641 87.2461H29.9844C27.1133 87.2461 25.0944 86.6309 23.9277 85.4004C22.7702 84.1699 22.1914 82.0143 22.1914 78.9336V74.709ZM42.9844 87V66.6426H51.0918L57.4219 81.7637V66.6426H62.6309V87H54.5098L48.1797 71.7422V87H42.9844ZM64.8984 80.6973H70.1348V80.9023C70.1348 81.6315 70.3307 82.1465 70.7227 82.4473C71.1146 82.7389 71.8073 82.8848 72.8008 82.8848H74.168C74.9792 82.8848 75.5534 82.7754 75.8906 82.5566C76.237 82.3288 76.4102 81.9323 76.4102 81.3672V80.4785C76.4102 79.9954 76.2826 79.6536 76.0273 79.4531C75.7721 79.2526 75.1706 79.0885 74.2227 78.9609L69.793 78.4824C68.1523 78.3001 66.9492 77.7852 66.1836 76.9375C65.418 76.0807 65.0352 74.8138 65.0352 73.1367V71.8789C65.0352 70.9492 65.181 70.1152 65.4727 69.377C65.7734 68.6387 66.2155 68.0189 66.7988 67.5176C67.291 67.1074 67.888 66.8203 68.5898 66.6562C68.9453 66.5742 69.3783 66.5104 69.8887 66.4648C70.4082 66.4193 71.0234 66.3965 71.7344 66.3965H75.002C77.0163 66.3965 78.5658 66.8112 79.6504 67.6406C80.735 68.4609 81.2773 69.6413 81.2773 71.1816V72.5762H76.041V72.3574C76.041 71.7467 75.8952 71.3229 75.6035 71.0859C75.321 70.849 74.806 70.7305 74.0586 70.7305H72.8008C71.9349 70.7305 71.3379 70.8307 71.0098 71.0312C70.6908 71.2318 70.5312 71.5872 70.5312 72.0977V72.9453C70.5312 73.6836 71.265 74.1393 72.7324 74.3125L76.7656 74.7637C78.5065 74.9551 79.8053 75.4609 80.6621 76.2812C81.5189 77.1016 81.9473 78.25 81.9473 79.7266V81.6816C81.9473 83.3587 81.4232 84.7077 80.375 85.7285C79.3359 86.7402 77.9277 87.2461 76.1504 87.2461H71.707C69.3372 87.2461 67.61 86.8359 66.5254 86.0156C65.4408 85.1862 64.8984 83.8828 64.8984 82.1055V80.6973ZM83.9004 66.6426H89.3281V78.5098C89.3281 80.1413 89.5332 81.2077 89.9434 81.709C90.3535 82.2103 91.2057 82.4609 92.5 82.4609H93.498C94.765 82.4609 95.6035 82.2194 96.0137 81.7363C96.4329 81.2533 96.6426 80.1777 96.6426 78.5098V66.6426H102.07V78.9336C102.07 80.7656 101.956 82.1055 101.729 82.9531C101.619 83.3906 101.473 83.7871 101.291 84.1426C101.109 84.498 100.876 84.8444 100.594 85.1816C99.974 85.9108 99.181 86.4395 98.2148 86.7676C97.2487 87.0866 95.959 87.2461 94.3457 87.2461H91.6523C90.8138 87.2461 90.0846 87.2096 89.4648 87.1367C88.8542 87.0638 88.2936 86.9408 87.7832 86.7676C86.8444 86.4577 86.056 85.929 85.418 85.1816C84.8802 84.571 84.4928 83.8145 84.2559 82.9121C84.0189 82.0098 83.9004 80.6836 83.9004 78.9336V66.6426ZM104.98 87V66.6426H110.49V82.2695H119.596V87H104.98ZM125.062 87V71.1816H119.826V66.6426H135.795V71.1816H130.586V87H125.062ZM142.629 75.1602V78.5098C142.629 80.2507 142.825 81.3444 143.217 81.791C143.609 82.2376 144.429 82.4609 145.678 82.4609H146.689C147.938 82.4609 148.763 82.2331 149.164 81.7773C149.565 81.3216 149.766 80.2324 149.766 78.5098V75.1602C149.766 73.4284 149.565 72.3346 149.164 71.8789C148.763 71.4141 147.938 71.1816 146.689 71.1816H145.678C144.438 71.1816 143.618 71.4141 143.217 71.8789C142.825 72.3346 142.629 73.4284 142.629 75.1602ZM137.051 74.709C137.051 71.6191 137.625 69.4635 138.773 68.2422C139.931 67.0117 141.954 66.3965 144.844 66.3965H147.523C150.404 66.3965 152.427 67.0163 153.594 68.2559C154.76 69.4863 155.344 71.6374 155.344 74.709V78.9336C155.344 82.0143 154.765 84.1699 153.607 85.4004C152.45 86.6309 150.422 87.2461 147.523 87.2461H144.844C141.973 87.2461 139.954 86.6309 138.787 85.4004C137.63 84.1699 137.051 82.0143 137.051 78.9336V74.709ZM163.299 76.4727H166.348C167.259 76.4727 167.879 76.3132 168.207 75.9941C168.535 75.6751 168.699 75.0872 168.699 74.2305V73.4512C168.699 72.5944 168.531 72.002 168.193 71.6738C167.865 71.3457 167.25 71.1816 166.348 71.1816H163.299V76.4727ZM157.844 87V66.6426H166.047C169.182 66.6426 171.333 67.0573 172.5 67.8867C173.667 68.707 174.25 70.1517 174.25 72.2207V73.8613C174.25 75.2376 173.917 76.3132 173.252 77.0879C172.596 77.8535 171.611 78.3275 170.299 78.5098C171.666 78.7285 172.664 79.1842 173.293 79.877C173.931 80.5605 174.25 81.5358 174.25 82.8027V87H168.672V83.3359C168.672 82.4792 168.503 81.8867 168.166 81.5586C167.838 81.2305 167.223 81.0664 166.32 81.0664H163.299V87H157.844ZM183.176 79.3027H187.633L185.609 70.8672H185.254L183.176 79.3027ZM175.396 87L181.248 66.6426H189.643L195.357 87H189.506L188.59 83.4453H182.178L181.248 87H175.396Z" fill="#044CB6"/>
<path d="M209.07 87V71.1816H203.834V66.6426H219.803V71.1816H214.594V87H209.07ZM222.465 87V66.6426H237.75V71.1816H227.92V74.709H237.463V78.6328H227.92V82.4609H237.969V87H222.465ZM257.926 79.166V79.7539C257.926 82.4154 257.342 84.3294 256.176 85.4961C255.009 86.6628 253.1 87.2461 250.447 87.2461H248.602C245.73 87.2461 243.712 86.6309 242.545 85.4004C241.387 84.1699 240.809 82.0143 240.809 78.9336V74.709C240.809 71.6191 241.383 69.4635 242.531 68.2422C243.689 67.0117 245.712 66.3965 248.602 66.3965H250.105C252.967 66.3965 254.964 66.9342 256.094 68.0098C256.659 68.5475 257.083 69.2858 257.365 70.2246C257.648 71.1634 257.789 72.321 257.789 73.6973V74.0938H252.348V73.7246C252.348 72.7858 252.133 72.1296 251.705 71.7559C251.277 71.373 250.529 71.1816 249.463 71.1816C248.287 71.1816 247.503 71.4141 247.111 71.8789C246.719 72.3346 246.523 73.4284 246.523 75.1602V78.5098C246.523 80.2415 246.719 81.3353 247.111 81.791C247.503 82.2376 248.287 82.4609 249.463 82.4609C250.548 82.4609 251.304 82.2559 251.732 81.8457C252.161 81.4264 252.375 80.6882 252.375 79.6309V79.166H257.926ZM260.984 87V66.6426H269.092L275.422 81.7637V66.6426H280.631V87H272.51L266.18 71.7422V87H260.984ZM289.473 75.1602V78.5098C289.473 80.2507 289.669 81.3444 290.061 81.791C290.452 82.2376 291.273 82.4609 292.521 82.4609H293.533C294.782 82.4609 295.607 82.2331 296.008 81.7773C296.409 81.3216 296.609 80.2324 296.609 78.5098V75.1602C296.609 73.4284 296.409 72.3346 296.008 71.8789C295.607 71.4141 294.782 71.1816 293.533 71.1816H292.521C291.282 71.1816 290.462 71.4141 290.061 71.8789C289.669 72.3346 289.473 73.4284 289.473 75.1602ZM283.895 74.709C283.895 71.6191 284.469 69.4635 285.617 68.2422C286.775 67.0117 288.798 66.3965 291.688 66.3965H294.367C297.247 66.3965 299.271 67.0163 300.438 68.2559C301.604 69.4863 302.188 71.6374 302.188 74.709V78.9336C302.188 82.0143 301.609 84.1699 300.451 85.4004C299.294 86.6309 297.266 87.2461 294.367 87.2461H291.688C288.816 87.2461 286.798 86.6309 285.631 85.4004C284.473 84.1699 283.895 82.0143 283.895 78.9336V74.709ZM305.492 87V66.6426H311.002V82.2695H320.107V87H305.492ZM327.254 75.1602V78.5098C327.254 80.2507 327.45 81.3444 327.842 81.791C328.234 82.2376 329.054 82.4609 330.303 82.4609H331.314C332.563 82.4609 333.388 82.2331 333.789 81.7773C334.19 81.3216 334.391 80.2324 334.391 78.5098V75.1602C334.391 73.4284 334.19 72.3346 333.789 71.8789C333.388 71.4141 332.563 71.1816 331.314 71.1816H330.303C329.063 71.1816 328.243 71.4141 327.842 71.8789C327.45 72.3346 327.254 73.4284 327.254 75.1602ZM321.676 74.709C321.676 71.6191 322.25 69.4635 323.398 68.2422C324.556 67.0117 326.579 66.3965 329.469 66.3965H332.148C335.029 66.3965 337.052 67.0163 338.219 68.2559C339.385 69.4863 339.969 71.6374 339.969 74.709V78.9336C339.969 82.0143 339.39 84.1699 338.232 85.4004C337.075 86.6309 335.047 87.2461 332.148 87.2461H329.469C326.598 87.2461 324.579 86.6309 323.412 85.4004C322.255 84.1699 321.676 82.0143 321.676 78.9336V74.709ZM334.842 59.875L330.562 64.9336H328.621L331.314 59.875H334.842ZM360.801 73H355.346C355.346 72.3893 355.113 71.9336 354.648 71.6328C354.193 71.332 353.459 71.1816 352.447 71.1816H351.08C349.831 71.1816 349.007 71.4095 348.605 71.8652C348.204 72.321 348.004 73.4193 348.004 75.1602V78.5098C348.004 80.2324 348.204 81.3216 348.605 81.7773C349.007 82.2331 349.831 82.4609 351.08 82.4609H352.598C353.655 82.4609 354.398 82.3105 354.826 82.0098C355.264 81.709 355.482 81.1895 355.482 80.4512V79.6582H352.365V75.8574H360.801V79.3301C360.801 82.0827 360.195 84.0924 358.982 85.3594C357.779 86.6172 355.874 87.2461 353.268 87.2461H349.562C347.275 87.2461 345.534 86.5215 344.34 85.0723C343.155 83.6139 342.562 81.4674 342.562 78.6328V75.543C342.562 72.362 343.187 70.0423 344.436 68.584C345.684 67.1257 347.658 66.3965 350.355 66.3965H353.322C355.51 66.3965 357.301 66.9434 358.695 68.0371C360.099 69.1217 360.801 70.4889 360.801 72.1387V73ZM364.188 87V66.6426H369.697V87H364.188ZM390.215 79.166V79.7539C390.215 82.4154 389.632 84.3294 388.465 85.4961C387.298 86.6628 385.389 87.2461 382.736 87.2461H380.891C378.02 87.2461 376.001 86.6309 374.834 85.4004C373.676 84.1699 373.098 82.0143 373.098 78.9336V74.709C373.098 71.6191 373.672 69.4635 374.82 68.2422C375.978 67.0117 378.001 66.3965 380.891 66.3965H382.395C385.257 66.3965 387.253 66.9342 388.383 68.0098C388.948 68.5475 389.372 69.2858 389.654 70.2246C389.937 71.1634 390.078 72.321 390.078 73.6973V74.0938H384.637V73.7246C384.637 72.7858 384.423 72.1296 383.994 71.7559C383.566 71.373 382.818 71.1816 381.752 71.1816C380.576 71.1816 379.792 71.4141 379.4 71.8789C379.008 72.3346 378.812 73.4284 378.812 75.1602V78.5098C378.812 80.2415 379.008 81.3353 379.4 81.791C379.792 82.2376 380.576 82.4609 381.752 82.4609C382.837 82.4609 383.593 82.2559 384.021 81.8457C384.45 81.4264 384.664 80.6882 384.664 79.6309V79.166H390.215ZM399.016 79.3027H403.473L401.449 70.8672H401.094L399.016 79.3027ZM391.236 87L397.088 66.6426H405.482L411.197 87H405.346L404.43 83.4453H398.018L397.088 87H391.236Z" fill="#044CB6"/>
<path d="M77 17.9806C77 17.3225 77.6258 16.8438 78.2504 17.0511C87.4 20.0879 93.9998 28.7136 94 38.8824C94 51.585 83.7025 61.8824 71 61.8824C58.2975 61.8824 48 51.585 48 38.8824C48.0002 28.7136 54.6 20.0879 63.7496 17.0511C64.3742 16.8438 65 17.3225 65 17.9806V25.5981C65 25.9841 64.7761 26.3329 64.4353 26.5142C60.0119 28.8668 57.0001 33.5229 57 38.8824C57 46.6144 63.268 52.8824 71 52.8824C78.732 52.8824 85 46.6144 85 38.8824C84.9999 33.5229 81.9881 28.8668 77.5647 26.5142C77.2239 26.3329 77 25.9841 77 25.5981V17.9806Z" fill="#044CB6"/>
<rect x="67" y="13" width="8" height="26" rx="4" fill="#044CB6"/>
</svg>
